<svg width="24" height="24" viewBox="0 0 24 24" fill="none" xmlns="http://www.w3.org/2000/svg">
<g id="streamline:group-meeting-call">
<g id="Group">
<path id="Vector" d="M3.17188 22.2596C3.17762 21.7082 3.32307 21.1673 3.59463 20.6874C3.88051 20.188 4.29242 19.7724 4.78919 19.4821C5.28597 19.1917 5.85024 19.0368 6.42562 19.0328C7.00074 19.0371 7.56468 19.1921 8.06116 19.4825C8.55764 19.7728 8.96929 20.1882 9.25504 20.6874C9.52738 21.1671 9.67146 21.7086 9.67779 22.2596M14.3265 22.2596C14.3322 21.7082 14.4777 21.1673 14.7492 20.6874C15.035 20.1882 15.4466 19.7728 15.9431 19.4825C16.4396 19.1921 17.0035 19.0371 17.5786 19.0328C18.4363 19.034 19.2589 19.3733 19.868 19.9771C20.4771 20.5808 20.8236 21.4004 20.8324 22.258M8.84496 11.5547C8.84971 11.0211 8.99062 10.497 9.25346 10.0315C9.53064 9.54726 9.93011 9.14423 10.4119 8.86277C10.8937 8.5813 11.441 8.43125 11.999 8.42762C13.1231 8.42921 14.1887 9.05146 14.7429 10.0315C15.0057 10.497 15.1466 11.0211 15.153 11.5547M6.42562 17.5951C6.90497 17.5951 7.36468 17.4047 7.70363 17.0658C8.04258 16.7268 8.233 16.2671 8.233 15.7878C8.233 15.3084 8.04258 14.8487 7.70363 14.5097C7.36468 14.1708 6.90497 13.9804 6.42562 13.9804C5.94628 13.9804 5.48657 14.1708 5.14762 14.5097C4.80867 14.8487 4.61825 15.3084 4.61825 15.7878C4.61825 16.2671 4.80867 16.7268 5.14762 17.0658C5.48657 17.4047 5.94628 17.5951 6.42562 17.5951ZM17.5802 17.5951C18.0596 17.5951 18.5193 17.4047 18.8582 17.0658C19.1972 16.7268 19.3876 16.2671 19.3876 15.7878C19.3876 15.3084 19.1972 14.8487 18.8582 14.5097C18.5193 14.1708 18.0596 13.9804 17.5802 13.9804C17.1009 13.9804 16.6411 14.1708 16.3022 14.5097C15.9633 14.8487 15.7728 15.3084 15.7728 15.7878C15.7728 16.2671 15.9633 16.7268 16.3022 17.0658C16.6411 17.4047 17.1009 17.5951 17.5802 17.5951ZM11.9974 7.32562C12.4446 7.32562 12.8735 7.14797 13.1897 6.83173C13.506 6.5155 13.6836 6.0866 13.6836 5.63938C13.6836 5.19215 13.506 4.76325 13.1897 4.44702C12.8735 4.13078 12.4446 3.95313 11.9974 3.95312C11.5502 3.95313 11.1212 4.13078 10.805 4.44702C10.4888 4.76325 10.3111 5.19215 10.3111 5.63938C10.3111 6.0866 10.4888 6.5155 10.805 6.83173C11.1212 7.14797 11.5502 7.32562 11.9974 7.32562Z" stroke="white" stroke-linecap="round" stroke-linejoin="round"/>
<path id="Vector_2" d="M19.5709 1.78125H4.42785C4.12634 1.78125 3.83718 1.90102 3.62399 2.11422C3.41079 2.32742 3.29102 2.61658 3.29102 2.91808V10.4183C3.29102 11.0469 3.80085 11.5552 4.42785 11.5552H19.5709C19.8724 11.5552 20.1615 11.4354 20.3747 11.2222C20.5879 11.009 20.7077 10.7198 20.7077 10.4183V2.91808C20.7077 2.61658 20.5879 2.32742 20.3747 2.11422C20.1615 1.90102 19.8724 1.78125 19.5709 1.78125Z" stroke="#FFA8A8" stroke-linecap="round" stroke-linejoin="round"/>
</g>
</g>
</svg>
